<mxfile host="app.diagrams.net" modified="2023-05-31T18:23:19.620Z" agent="Mozilla/5.0 (X11; Ubuntu; Linux x86_64; rv:109.0) Gecko/20100101 Firefox/113.0" etag="4RFcI1rYt0GfV5-lwCvq" version="21.3.6" type="github">
  <diagram id="R2lEEEUBdFMjLlhIrx00" name="Page-1">
    <mxGraphModel dx="1195" dy="663" grid="1" gridSize="10" guides="1" tooltips="1" connect="1" arrows="1" fold="1" page="1" pageScale="1" pageWidth="850" pageHeight="1100" math="0" shadow="0" extFonts="Permanent Marker^https://fonts.googleapis.com/css?family=Permanent+Marker">
      <root>
        <mxCell id="0" />
        <mxCell id="1" parent="0" />
        <mxCell id="xLcOz8DeJjvuQbrTK_A3-40" style="edgeStyle=orthogonalEdgeStyle;rounded=0;orthogonalLoop=1;jettySize=auto;html=1;exitX=1;exitY=0;exitDx=0;exitDy=0;" edge="1" parent="1" source="xLcOz8DeJjvuQbrTK_A3-21">
          <mxGeometry relative="1" as="geometry">
            <mxPoint x="410" y="510" as="targetPoint" />
          </mxGeometry>
        </mxCell>
        <mxCell id="xLcOz8DeJjvuQbrTK_A3-21" value="contienen" style="rhombus;whiteSpace=wrap;html=1;fillColor=#6a00ff;fontColor=#ffffff;strokeColor=#3700CC;" vertex="1" parent="1">
          <mxGeometry x="360" y="480" width="80" height="80" as="geometry" />
        </mxCell>
        <mxCell id="xLcOz8DeJjvuQbrTK_A3-22" value="rutas" style="rounded=0;whiteSpace=wrap;html=1;fillColor=#1ba1e2;fontColor=#ffffff;strokeColor=#006EAF;" vertex="1" parent="1">
          <mxGeometry x="340" y="350" width="120" height="60" as="geometry" />
        </mxCell>
        <mxCell id="xLcOz8DeJjvuQbrTK_A3-23" value="campus" style="text;html=1;align=center;verticalAlign=middle;resizable=0;points=[];autosize=1;strokeColor=none;fillColor=none;" vertex="1" parent="1">
          <mxGeometry x="365" y="68" width="70" height="30" as="geometry" />
        </mxCell>
        <mxCell id="xLcOz8DeJjvuQbrTK_A3-24" value="grupos" style="rounded=0;whiteSpace=wrap;html=1;fillColor=#60a917;fontColor=#ffffff;strokeColor=#2D7600;" vertex="1" parent="1">
          <mxGeometry x="340" y="610" width="120" height="60" as="geometry" />
        </mxCell>
        <mxCell id="xLcOz8DeJjvuQbrTK_A3-25" value="" style="endArrow=none;html=1;rounded=0;" edge="1" parent="1">
          <mxGeometry width="50" height="50" relative="1" as="geometry">
            <mxPoint x="300" y="720" as="sourcePoint" />
            <mxPoint x="350" y="670" as="targetPoint" />
            <Array as="points" />
          </mxGeometry>
        </mxCell>
        <mxCell id="xLcOz8DeJjvuQbrTK_A3-27" value="idGrupo" style="ellipse;whiteSpace=wrap;html=1;fillColor=#d80073;fontColor=#ffffff;strokeColor=#A50040;" vertex="1" parent="1">
          <mxGeometry x="210" y="710" width="120" height="80" as="geometry" />
        </mxCell>
        <mxCell id="xLcOz8DeJjvuQbrTK_A3-28" value="" style="endArrow=none;html=1;rounded=0;" edge="1" parent="1">
          <mxGeometry width="50" height="50" relative="1" as="geometry">
            <mxPoint x="404.58" y="750" as="sourcePoint" />
            <mxPoint x="404.58" y="670" as="targetPoint" />
            <Array as="points" />
          </mxGeometry>
        </mxCell>
        <mxCell id="xLcOz8DeJjvuQbrTK_A3-29" value="nombreGrupo" style="ellipse;whiteSpace=wrap;html=1;fillColor=#d80073;fontColor=#ffffff;strokeColor=#A50040;" vertex="1" parent="1">
          <mxGeometry x="345" y="750" width="120" height="80" as="geometry" />
        </mxCell>
        <mxCell id="xLcOz8DeJjvuQbrTK_A3-30" value="" style="endArrow=none;html=1;rounded=0;entryX=1;entryY=1;entryDx=0;entryDy=0;exitX=0.361;exitY=-0.027;exitDx=0;exitDy=0;exitPerimeter=0;" edge="1" parent="1" source="xLcOz8DeJjvuQbrTK_A3-31" target="xLcOz8DeJjvuQbrTK_A3-24">
          <mxGeometry width="50" height="50" relative="1" as="geometry">
            <mxPoint x="500" y="720" as="sourcePoint" />
            <mxPoint x="515" y="670" as="targetPoint" />
          </mxGeometry>
        </mxCell>
        <mxCell id="xLcOz8DeJjvuQbrTK_A3-31" value="cantidadCampers" style="ellipse;whiteSpace=wrap;html=1;fillColor=#d80073;fontColor=#ffffff;strokeColor=#A50040;" vertex="1" parent="1">
          <mxGeometry x="480" y="740" width="120" height="80" as="geometry" />
        </mxCell>
        <mxCell id="xLcOz8DeJjvuQbrTK_A3-32" value="" style="endArrow=none;html=1;rounded=0;" edge="1" parent="1">
          <mxGeometry width="50" height="50" relative="1" as="geometry">
            <mxPoint x="400" y="470" as="sourcePoint" />
            <mxPoint x="400" y="410" as="targetPoint" />
          </mxGeometry>
        </mxCell>
        <mxCell id="xLcOz8DeJjvuQbrTK_A3-33" value="" style="endArrow=none;html=1;rounded=0;exitX=0.507;exitY=-0.078;exitDx=0;exitDy=0;exitPerimeter=0;" edge="1" parent="1" source="xLcOz8DeJjvuQbrTK_A3-24">
          <mxGeometry width="50" height="50" relative="1" as="geometry">
            <mxPoint x="350" y="610" as="sourcePoint" />
            <mxPoint x="400" y="560" as="targetPoint" />
          </mxGeometry>
        </mxCell>
        <mxCell id="xLcOz8DeJjvuQbrTK_A3-34" value="" style="endArrow=none;html=1;rounded=0;" edge="1" parent="1">
          <mxGeometry width="50" height="50" relative="1" as="geometry">
            <mxPoint x="285" y="379.58000000000004" as="sourcePoint" />
            <mxPoint x="345" y="379.58000000000004" as="targetPoint" />
          </mxGeometry>
        </mxCell>
        <mxCell id="xLcOz8DeJjvuQbrTK_A3-35" value="pruebas" style="rhombus;whiteSpace=wrap;html=1;fillColor=#6a00ff;fontColor=#ffffff;strokeColor=#3700CC;" vertex="1" parent="1">
          <mxGeometry x="210" y="340" width="80" height="80" as="geometry" />
        </mxCell>
        <mxCell id="xLcOz8DeJjvuQbrTK_A3-36" value="" style="endArrow=none;html=1;rounded=0;" edge="1" parent="1">
          <mxGeometry width="50" height="50" relative="1" as="geometry">
            <mxPoint x="250" y="470" as="sourcePoint" />
            <mxPoint x="250" y="420" as="targetPoint" />
          </mxGeometry>
        </mxCell>
        <mxCell id="xLcOz8DeJjvuQbrTK_A3-37" value="resultados" style="ellipse;whiteSpace=wrap;html=1;fillColor=#d80073;fontColor=#ffffff;strokeColor=#A50040;" vertex="1" parent="1">
          <mxGeometry x="190" y="460" width="120" height="80" as="geometry" />
        </mxCell>
        <mxCell id="xLcOz8DeJjvuQbrTK_A3-38" value="campers" style="rounded=0;whiteSpace=wrap;html=1;fillColor=#60a917;fontColor=#ffffff;strokeColor=#2D7600;" vertex="1" parent="1">
          <mxGeometry x="30" y="350" width="120" height="60" as="geometry" />
        </mxCell>
        <mxCell id="xLcOz8DeJjvuQbrTK_A3-39" value="" style="endArrow=none;html=1;rounded=0;exitX=1;exitY=0.5;exitDx=0;exitDy=0;" edge="1" parent="1" source="xLcOz8DeJjvuQbrTK_A3-38">
          <mxGeometry width="50" height="50" relative="1" as="geometry">
            <mxPoint x="160" y="430" as="sourcePoint" />
            <mxPoint x="210" y="380" as="targetPoint" />
          </mxGeometry>
        </mxCell>
      </root>
    </mxGraphModel>
  </diagram>
</mxfile>
